<svg width="13" height="13" viewBox="0 0 13 13" fill="none" xmlns="http://www.w3.org/2000/svg">
<path d="M10.7778 5.95H2.22222C1.54721 5.95 1 6.44248 1 7.05V10.9C1 11.5075 1.54721 12 2.22222 12H10.7778C11.4528 12 12 11.5075 12 10.9V7.05C12 6.44248 11.4528 5.95 10.7778 5.95Z" stroke="black" stroke-width="2" stroke-linecap="round" stroke-linejoin="round"/>
<path d="M3.44446 5.95V3.75C3.44446 3.02065 3.76638 2.32118 4.33941 1.80546C4.91244 1.28973 5.68963 1 6.50001 1C7.3104 1 8.08759 1.28973 8.66062 1.80546C9.23365 2.32118 9.55557 3.02065 9.55557 3.75V5.95" stroke="black" stroke-width="2" stroke-linecap="round" stroke-linejoin="round"/>
</svg>
