<svg width="20" height="18" viewBox="0 0 20 18" fill="none" xmlns="http://www.w3.org/2000/svg">
<path d="M10.0005 15.3447C10.017 15.4822 10.0017 15.6217 9.95606 15.7525C9.91037 15.8832 9.8354 16.0018 9.73688 16.0992C9.56656 16.2685 9.33616 16.3635 9.096 16.3635C8.85585 16.3635 8.62545 16.2685 8.45513 16.0992L4.81895 12.463C4.71749 12.3655 4.64006 12.2458 4.59274 12.1133C4.54541 11.9808 4.52949 11.8391 4.54623 11.6994V7.0451L0.191906 1.47265C0.044285 1.28314 -0.0223249 1.04291 0.00663198 0.804441C0.0355888 0.565973 0.157758 0.348661 0.346444 0.19999C0.506381 0.0716686 0.705004 0.0011894 0.910052 0H13.6367C13.8417 0.0011894 14.0404 0.0716686 14.2003 0.19999C14.389 0.348661 14.5111 0.565973 14.5401 0.804441C14.5691 1.04291 14.5025 1.28314 14.3548 1.47265L10.0005 7.0451V15.3447ZM2.72814 1.81809L6.36432 6.41786V11.4358L8.18241 13.2539V6.40877L11.8186 1.81809M10.9095 12.7266L15.4548 17.2719L20 12.7266H10.9095Z" fill="black"/>
</svg>
