<svg width="33" height="33" viewBox="0 0 33 33" fill="none" xmlns="http://www.w3.org/2000/svg">
<g filter="url(#filter0_d_493_101)">
<rect x="4" width="25" height="25" rx="10" fill="#80F8A1"/>
</g>
<path d="M16.5 20.3182C20.6421 20.3182 24 17.1129 24 13.1591C24 9.20523 20.6421 6 16.5 6C12.3579 6 9 9.20523 9 13.1591C9 17.1129 12.3579 20.3182 16.5 20.3182Z" fill="black"/>
<path d="M20.2859 9.95454L15.4287 14.5909L13.4287 12.6818L12.4287 13.6364L15.4287 16.5L21.2859 10.9091L20.2859 9.95454Z" fill="white"/>
<path d="M20.2859 9.95454L15.4287 14.5909L13.4287 12.6818L12.4287 13.6364L15.4287 16.5L21.2859 10.9091L20.2859 9.95454Z" fill="white"/>
<defs>
<filter id="filter0_d_493_101" x="0" y="0" width="33" height="33" filterUnits="userSpaceOnUse" color-interpolation-filters="sRGB">
<feFlood flood-opacity="0" result="BackgroundImageFix"/>
<feColorMatrix in="SourceAlpha" type="matrix" values="0 0 0 0 0 0 0 0 0 0 0 0 0 0 0 0 0 0 127 0" result="hardAlpha"/>
<feOffset dy="4"/>
<feGaussianBlur stdDeviation="2"/>
<feComposite in2="hardAlpha" operator="out"/>
<feColorMatrix type="matrix" values="0 0 0 0 0 0 0 0 0 0 0 0 0 0 0 0 0 0 0.25 0"/>
<feBlend mode="normal" in2="BackgroundImageFix" result="effect1_dropShadow_493_101"/>
<feBlend mode="normal" in="SourceGraphic" in2="effect1_dropShadow_493_101" result="shape"/>
</filter>
</defs>
</svg>
