<svg width="33" height="33" viewBox="0 0 33 33" fill="none" xmlns="http://www.w3.org/2000/svg">
<g filter="url(#filter0_d_493_100)">
<rect x="4" width="25" height="25" rx="10" fill="#FBF2A2"/>
</g>
<path d="M18.6 6.27686L23.6258 15.1127C24.348 16.3818 23.9933 18.0514 22.833 18.8415C22.4436 19.1077 21.9897 19.2495 21.5258 19.25H11.4735C10.1078 19.25 9 18.0387 9 16.5433C9 16.0374 9.12975 15.5426 9.3735 15.1127L14.4 6.27686C15.1215 5.0078 16.647 4.61909 17.8073 5.40918C18.1283 5.62768 18.3998 5.92456 18.6 6.27686ZM16.5 16.0833C16.6989 16.0833 16.8897 15.9999 17.0304 15.8514C17.171 15.703 17.25 15.5016 17.25 15.2916C17.25 15.0817 17.171 14.8803 17.0304 14.7318C16.8897 14.5834 16.6989 14.5 16.5 14.5C16.3011 14.5 16.1103 14.5834 15.9697 14.7318C15.829 14.8803 15.75 15.0817 15.75 15.2916C15.75 15.5016 15.829 15.703 15.9697 15.8514C16.1103 15.9999 16.3011 16.0833 16.5 16.0833ZM16.5 8.95825C16.3011 8.95825 16.1103 9.04166 15.9697 9.19013C15.829 9.3386 15.75 9.53996 15.75 9.74993V12.9166C15.75 13.1266 15.829 13.3279 15.9697 13.4764C16.1103 13.6249 16.3011 13.7083 16.5 13.7083C16.6989 13.7083 16.8897 13.6249 17.0304 13.4764C17.171 13.3279 17.25 13.1266 17.25 12.9166V9.74993C17.25 9.53996 17.171 9.3386 17.0304 9.19013C16.8897 9.04166 16.6989 8.95825 16.5 8.95825Z" fill="black"/>
<defs>
<filter id="filter0_d_493_100" x="0" y="0" width="33" height="33" filterUnits="userSpaceOnUse" color-interpolation-filters="sRGB">
<feFlood flood-opacity="0" result="BackgroundImageFix"/>
<feColorMatrix in="SourceAlpha" type="matrix" values="0 0 0 0 0 0 0 0 0 0 0 0 0 0 0 0 0 0 127 0" result="hardAlpha"/>
<feOffset dy="4"/>
<feGaussianBlur stdDeviation="2"/>
<feComposite in2="hardAlpha" operator="out"/>
<feColorMatrix type="matrix" values="0 0 0 0 0 0 0 0 0 0 0 0 0 0 0 0 0 0 0.25 0"/>
<feBlend mode="normal" in2="BackgroundImageFix" result="effect1_dropShadow_493_100"/>
<feBlend mode="normal" in="SourceGraphic" in2="effect1_dropShadow_493_100" result="shape"/>
</filter>
</defs>
</svg>
