<svg width="25" height="20" viewBox="0 0 25 20" fill="none" xmlns="http://www.w3.org/2000/svg">
<path d="M16 1.75513L24.3763 13.9007C25.5801 15.6451 24.9888 17.9401 23.0551 19.0262C22.406 19.392 21.6495 19.587 20.8763 19.5877H4.12251C1.84626 19.5877 0 17.9227 0 15.8671C0 15.1717 0.216251 14.4916 0.622502 13.9007L9.00003 1.75513C10.2025 0.010728 12.745 -0.523585 14.6788 0.562452C15.2138 0.862799 15.6663 1.27088 16 1.75513ZM12.5 15.2348C12.8316 15.2348 13.1495 15.1202 13.3839 14.9161C13.6183 14.712 13.75 14.4352 13.75 14.1466C13.75 13.858 13.6183 13.5812 13.3839 13.3771C13.1495 13.1731 12.8316 13.0584 12.5 13.0584C12.1685 13.0584 11.8506 13.1731 11.6161 13.3771C11.3817 13.5812 11.25 13.858 11.25 14.1466C11.25 14.4352 11.3817 14.712 11.6161 14.9161C11.8506 15.1202 12.1685 15.2348 12.5 15.2348ZM12.5 5.44091C12.1685 5.44091 11.8506 5.55556 11.6161 5.75964C11.3817 5.96372 11.25 6.24051 11.25 6.52913V10.882C11.25 11.1706 11.3817 11.4474 11.6161 11.6515C11.8506 11.8555 12.1685 11.9702 12.5 11.9702C12.8316 11.9702 13.1495 11.8555 13.3839 11.6515C13.6183 11.4474 13.75 11.1706 13.75 10.882V6.52913C13.75 6.24051 13.6183 5.96372 13.3839 5.75964C13.1495 5.55556 12.8316 5.44091 12.5 5.44091Z" fill="black"/>
</svg>
