<svg width="17" height="15" viewBox="0 0 17 15" fill="none" xmlns="http://www.w3.org/2000/svg">
<path d="M10.7186 1.34406L16.2811 10.645C17.0805 11.9808 16.6879 13.7383 15.4037 14.57C14.9727 14.8502 14.4703 14.9995 13.9568 15H2.83104C1.31944 15 0.0933838 13.725 0.0933838 12.1508C0.0933838 11.6183 0.236991 11.0975 0.506772 10.645L6.07008 1.34406C6.86864 0.00821537 8.55706 -0.400955 9.84122 0.430719C10.1965 0.66072 10.497 0.973223 10.7186 1.34406ZM8.39436 11.6666C8.61451 11.6666 8.82565 11.5788 8.98132 11.4226C9.137 11.2663 9.22445 11.0543 9.22445 10.8333C9.22445 10.6123 9.137 10.4003 8.98132 10.244C8.82565 10.0878 8.61451 9.99996 8.39436 9.99996C8.1742 9.99996 7.96306 10.0878 7.80739 10.244C7.65172 10.4003 7.56426 10.6123 7.56426 10.8333C7.56426 11.0543 7.65172 11.2663 7.80739 11.4226C7.96306 11.5788 8.1742 11.6666 8.39436 11.6666ZM8.39436 4.16658C8.1742 4.16658 7.96306 4.25438 7.80739 4.41066C7.65172 4.56694 7.56426 4.77891 7.56426 4.99992V8.33328C7.56426 8.5543 7.65172 8.76626 7.80739 8.92254C7.96306 9.07882 8.1742 9.16662 8.39436 9.16662C8.61451 9.16662 8.82565 9.07882 8.98132 8.92254C9.137 8.76626 9.22445 8.5543 9.22445 8.33328V4.99992C9.22445 4.77891 9.137 4.56694 8.98132 4.41066C8.82565 4.25438 8.61451 4.16658 8.39436 4.16658Z" fill="black"/>
</svg>
