<svg width="97" height="17" viewBox="0 0 97 17" fill="none" xmlns="http://www.w3.org/2000/svg">
<path d="M2.27699 0.108557L0.113849 0.245677L0.0455398 8.51862L0 16.8144H1.93544H3.84811L3.91642 14.0034L3.98473 11.2153L4.62229 11.1468C5.55585 11.0325 5.69247 11.1925 7.01313 13.7749C7.12697 14.0034 7.37744 14.4834 7.53683 14.8719C8.35655 16.7458 8.4704 16.8144 10.8385 16.8144C12.6601 16.8144 12.9788 16.7687 12.9788 16.4488C12.9788 16.2431 12.273 14.9861 11.3849 13.6835C9.54058 10.8954 9.35842 10.4612 9.95044 10.2783C11.2256 9.82126 12.7511 7.28453 12.7511 5.61623C12.7511 3.65084 11.2256 1.15981 9.60889 0.474211C8.4704 0.0171429 5.78355 -0.119978 2.27699 0.108557ZM7.7873 3.7194C8.10608 3.99364 8.19716 4.42785 8.19716 5.4334C8.19716 7.23882 7.87838 7.55877 6.05679 7.55877C3.89365 7.55877 3.87088 7.53592 3.87088 5.41055C3.87088 4.17647 3.96196 3.55942 4.16689 3.49086C4.30351 3.4223 5.10045 3.35374 5.8974 3.35374C6.96759 3.33089 7.46852 3.44516 7.7873 3.7194Z" fill="#373B5F"/>
<path d="M56.8109 0.108546C55.4902 0.359934 54.1468 1.18266 53.532 2.09679C52.4846 3.62797 52.143 5.18201 52.143 8.58717C52.143 11.581 52.2797 12.4265 52.94 13.9577C53.2815 14.689 54.625 16.0374 55.5585 16.563C56.3099 16.9972 59.7254 17.1572 61.251 16.8144C61.9341 16.6773 62.7766 16.4944 63.1409 16.4259C63.4824 16.3573 63.7557 16.2202 63.7557 16.1288C63.7557 16.0145 63.9606 15.8546 64.2111 15.786C64.6892 15.626 64.8486 14.6662 64.4388 14.4148C64.3249 14.3462 64.2111 14.0263 64.2111 13.7292C64.2111 13.3864 63.9834 13.0207 63.6646 12.815C63.1864 12.4951 63.027 12.4951 62.3439 12.7693C60.8411 13.3864 58.6325 13.7063 57.881 13.4092C56.8564 12.975 56.6287 12.2209 56.5149 8.95282C56.3555 4.08504 56.7881 3.42229 60.158 3.51371C61.251 3.53656 62.3895 3.65083 62.6855 3.76509C63.528 4.08504 63.7329 3.78795 63.8923 2.05109L64.0517 0.428494L63.323 0.291373C62.0935 0.0399858 57.7672 -0.0742813 56.8109 0.108546Z" fill="#373B5F"/>
<path d="M18.3525 0.634189C18.1704 0.931284 17.806 1.98254 17.5556 2.98809C17.2823 3.99364 16.918 5.3877 16.7131 6.0733C16.5082 6.75891 16.2805 7.6959 16.1894 8.15297C16.0983 8.58718 15.9161 9.11281 15.8023 9.29564C15.7112 9.47846 15.5974 9.72985 15.5746 9.84412C15.529 10.2098 14.7776 12.7465 14.5499 13.3407C14.4361 13.6378 14.345 14.1177 14.345 14.4148C14.345 14.7119 14.2539 15.0318 14.1173 15.1004C14.0035 15.169 13.8896 15.6032 13.8896 16.0374V16.8373L15.8706 16.7687L17.8516 16.7001L18.2159 15.2147C18.3981 14.3919 18.6485 13.5921 18.7396 13.4321C18.8762 13.2493 19.5365 13.1579 20.7434 13.1579C22.7926 13.1579 22.7471 13.135 23.3164 15.5575L23.5668 16.7001L25.5706 16.7687C27.4832 16.8373 27.5516 16.8144 27.5516 16.3345C27.5516 15.8089 27.1872 14.3005 26.8685 13.5007C26.6408 12.9522 26.2081 11.261 26.026 10.3012C25.9577 9.91268 25.7755 9.4099 25.6161 9.15852C25.4567 8.90713 25.2063 8.0844 25.0469 7.33024C24.7964 6.11901 24.1361 3.81082 23.4074 1.50262C22.9976 0.199974 22.8837 0.131414 20.6978 0.131414C18.8535 0.131414 18.6485 0.177121 18.3525 0.634189ZM21.6314 9.20422C21.6314 9.68414 21.5175 9.72985 20.6067 9.72985C19.6049 9.72985 19.5821 9.707 19.7187 9.08996C20.1058 7.23883 20.5612 5.22773 20.6523 4.93063C20.7661 4.56498 21.6314 8.33579 21.6314 9.20422Z" fill="#373B5F"/>
<path d="M28.9633 0.405652C28.6901 0.771307 28.7128 16.106 28.9861 16.5173C29.0999 16.723 29.783 16.8144 30.9443 16.8144C32.1055 16.8144 32.8114 16.723 32.948 16.5173C33.0846 16.3573 33.153 13.0893 33.153 8.3815C33.1302 -0.645605 33.3807 0.177118 30.7166 0.154265C29.7602 0.131411 29.1227 0.245678 28.9633 0.405652Z" fill="#373B5F"/>
<path d="M36.6823 0.428507C36.5001 0.679895 36.4318 2.91953 36.4774 8.7243L36.5457 16.7001L38.39 16.7687L40.2344 16.8373L40.1205 11.741C40.075 8.61003 40.0978 6.73605 40.2344 6.87317C40.4166 7.07885 40.7581 7.83302 41.4412 9.61558C41.7827 10.5069 42.3975 11.9238 43.1489 13.5007C43.5588 14.3691 44.0597 15.4889 44.2647 15.9688L44.629 16.8373L47.0654 16.7687L49.5245 16.7001L49.5928 8.7243C49.6384 3.0338 49.57 0.657042 49.3879 0.451361C49.0236 -0.00570767 46.3823 0.0171458 45.9952 0.474214C45.7675 0.748455 45.7219 1.98254 45.813 5.61623C45.8813 8.26723 45.8813 10.4155 45.8586 10.4155C45.7219 10.4155 44.8567 8.51862 44.8567 8.26723C44.8567 8.13011 44.5834 7.44451 44.2647 6.75891C43.9231 6.0733 43.5816 5.29629 43.4905 5.0449C43.1262 4.13076 42.0104 1.61689 41.6461 0.931283C41.2818 0.24568 41.259 0.24568 39.1187 0.17712C37.4792 0.131413 36.8872 0.199973 36.6823 0.428507Z" fill="#373B5F"/>
<path d="M67.194 0.451362C67.0118 0.657043 66.9435 3.0338 66.989 8.7243L67.0573 16.7001L69.0611 16.7687L71.0421 16.8373V8.74715C71.0421 2.78241 70.9738 0.611336 70.7688 0.405655C70.3817 0.0171471 67.5355 0.0400005 67.194 0.451362Z" fill="#373B5F"/>
<path d="M74.6169 0.291384C74.5258 0.359944 74.4575 4.13076 74.4575 8.63288V16.8144H76.5296H78.6016L78.5333 13.5464L78.4422 10.3012L80.9242 10.2326C82.3131 10.2098 83.5655 10.0498 83.7249 9.91267C83.907 9.77555 84.0209 9.18136 84.0209 8.45006C84.0209 6.87317 83.7932 6.7589 80.8786 6.7589C78.3739 6.7589 78.3284 6.73605 78.3284 5.25058C78.3284 3.62798 78.4422 3.55942 81.7439 3.55942H84.704V2.07395C84.704 0.862719 84.6357 0.565625 84.2713 0.359944C83.7704 0.108557 74.8674 0.0399963 74.6169 0.291384Z" fill="#373B5F"/>
<path d="M86.8216 0.291383C86.5939 0.382796 86.5256 2.25678 86.5256 8.61003V16.8144L91.7171 16.7687L96.8859 16.7001L96.9542 15.3746C97.0453 13.4321 96.977 13.3864 93.7892 13.3864C90.6925 13.3864 90.5558 13.295 90.6697 11.3753L90.738 10.3012L93.3565 10.1869L95.9751 10.0726V8.47291V6.87317L93.607 6.80461C92.2864 6.78175 91.0796 6.62178 90.9202 6.48466C90.5786 6.21042 90.5331 4.97633 90.8519 4.15361C91.0568 3.55942 91.0796 3.55942 93.903 3.55942C97.0908 3.55942 96.9997 3.60513 96.9997 1.73115C96.9997 0.839865 96.9086 0.54277 96.5671 0.359943C96.1117 0.131409 87.3681 0.0628484 86.8216 0.291383Z" fill="#373B5F"/>
</svg>
