<svg width="40" height="34" viewBox="0 0 40 34" fill="none" xmlns="http://www.w3.org/2000/svg">
<path d="M13.6328 0.187496C13.1641 0.406246 12.875 0.703121 12.6641 1.17187C12.5078 1.50781 12.5 1.66406 12.5 5.625C12.5 9.58593 12.5078 9.74218 12.6641 10.0781C12.75 10.2734 12.9141 10.5312 13.0313 10.6562C13.3281 10.9687 13.9531 11.25 14.375 11.25C14.7969 11.25 15.4219 10.9687 15.7188 10.6562C15.8359 10.5312 16 10.2734 16.0859 10.0781C16.2422 9.74218 16.25 9.57812 16.25 6.73437V3.75H26.25H36.25V16.875V30H26.25H16.25V27.0078C16.25 24.0312 16.25 24.0234 16.0625 23.6328C15.3594 22.1406 13.3906 22.1406 12.6875 23.6328L12.5 24.0234V28.125V32.2266L12.6875 32.6172C12.9063 33.0859 13.2031 33.375 13.6719 33.5859C14.0234 33.7422 14.1172 33.75 26.25 33.75C38.3828 33.75 38.4766 33.7422 38.8281 33.5859C39.2969 33.375 39.5938 33.0859 39.8125 32.6172L40 32.2266V16.875C40 1.60156 39.9922 1.52343 39.8359 1.17187C39.625 0.703121 39.3359 0.406246 38.8672 0.187496L38.4766 -4.02331e-06H26.25H14.0234L13.6328 0.187496Z" fill="#373B5F"/>
<path d="M6.75781 9.5625C6.45313 9.71094 5.69531 10.4219 3.27344 12.8594C0 16.1562 0 16.1641 0 16.875C0 17.5859 0 17.5937 3.27344 20.8906C6.58594 24.2266 6.76563 24.375 7.5 24.375C7.92188 24.375 8.54688 24.0937 8.84375 23.7812C9.14063 23.4609 9.375 22.9062 9.375 22.5C9.375 21.8594 9.14844 21.5391 7.71094 20.0937L6.36719 18.75H17.4219H28.4766L28.8672 18.5625C30.3594 17.8594 30.3594 15.8906 28.8672 15.1875L28.4766 15H17.4219H6.36719L7.71094 13.6484C9.14844 12.2109 9.36719 11.8906 9.375 11.25C9.375 10.8281 9.10156 10.2031 8.78125 9.90625C8.21094 9.375 7.42969 9.24219 6.75781 9.5625Z" fill="#373B5F"/>
</svg>
