<svg width="20" height="20" viewBox="0 0 20 20" fill="none" xmlns="http://www.w3.org/2000/svg">
<path d="M19.775 18.6888L15.6233 14.5371C17.0894 12.7911 17.8249 10.5465 17.6764 8.27137C17.5279 5.99626 16.5069 3.8663 14.8263 2.32566C13.1456 0.785012 10.9351 -0.0473729 8.65568 0.00208415C6.37627 0.0515412 4.20394 0.979022 2.5917 2.59111C0.979456 4.2032 0.0517728 6.37545 0.00210219 8.65485C-0.0475684 10.9343 0.784609 13.1449 2.32509 14.8256C3.86558 16.5064 5.99545 17.5277 8.27054 17.6764C10.5456 17.8251 12.7903 17.0898 14.5365 15.6238L18.6882 19.7755C18.8323 19.9196 19.0277 20.0006 19.2315 20.0006C19.4353 20.0006 19.6308 19.9196 19.7749 19.7755C19.919 19.6314 20 19.436 20 19.2322C20 19.0284 19.9191 18.8329 19.775 18.6888ZM1.55836 8.85833C1.55836 7.41452 1.9865 6.00313 2.78864 4.80264C3.59078 3.60216 4.73089 2.6665 6.06479 2.11398C7.3987 1.56145 8.86649 1.41689 10.2826 1.69856C11.6986 1.98024 12.9994 2.6755 14.0203 3.69642C15.0412 4.71735 15.7365 6.01809 16.0182 7.43416C16.2998 8.85023 16.1553 10.318 15.6027 11.6519C15.0502 12.9858 14.1146 14.1259 12.9141 14.9281C11.7136 15.7302 10.3022 16.1584 8.85839 16.1584C6.92298 16.1562 5.06746 15.3864 3.69891 14.0178C2.33037 12.6493 1.56055 10.7937 1.55836 8.85833Z" fill="#9C9090"/>
</svg>
