<svg width="40" height="40" viewBox="0 0 40 40" fill="none" xmlns="http://www.w3.org/2000/svg">
<path d="M20 9.76746C18.7639 9.76746 17.5555 10.1255 16.5277 10.7963C15.4999 11.4671 14.6988 12.4205 14.2258 13.536C13.7527 14.6514 13.6289 15.8789 13.8701 17.0631C14.1113 18.2473 14.7065 19.335 15.5806 20.1887C16.4547 21.0425 17.5683 21.6239 18.7807 21.8595C19.9931 22.095 21.2497 21.9741 22.3918 21.5121C23.5338 21.05 24.5099 20.2676 25.1967 19.2637C25.8834 18.2598 26.25 17.0795 26.25 15.8721C26.25 14.2531 25.5915 12.7003 24.4194 11.5555C23.2473 10.4106 21.6576 9.76746 20 9.76746ZM20 19.5349C19.2583 19.5349 18.5333 19.3201 17.9166 18.9176C17.2999 18.5151 16.8193 17.9431 16.5355 17.2738C16.2516 16.6045 16.1774 15.868 16.3221 15.1575C16.4668 14.447 16.8239 13.7944 17.3484 13.2821C17.8728 12.7699 18.541 12.421 19.2684 12.2797C19.9958 12.1384 20.7498 12.2109 21.4351 12.4881C22.1203 12.7654 22.706 13.2348 23.118 13.8372C23.5301 14.4395 23.75 15.1477 23.75 15.8721C23.7489 16.8432 23.3534 17.7742 22.6504 18.4609C21.9474 19.1475 20.9942 19.5338 20 19.5349Z" fill="#373B5F"/>
<path d="M20 2.44183C16.5388 2.44183 13.1554 3.44432 10.2775 5.32253C7.39967 7.20073 5.15665 9.8703 3.83212 12.9936C2.50758 16.117 2.16102 19.5538 2.83627 22.8695C3.51151 26.1853 5.17822 29.2309 7.62564 31.6214C10.0731 34.0119 13.1913 35.6399 16.5859 36.2994C19.9806 36.959 23.4993 36.6205 26.697 35.3268C29.8947 34.033 32.6278 31.8422 34.5507 29.0312C36.4737 26.2203 37.5 22.9155 37.5 19.5349C37.4948 15.0031 35.6494 10.6584 32.3686 7.4539C29.0878 4.24945 24.6397 2.44694 20 2.44183ZM12.5 32.2038V30.5232C12.5011 29.5521 12.8965 28.6211 13.5996 27.9344C14.3026 27.2477 15.2558 26.8615 16.25 26.8604H23.75C24.7442 26.8615 25.6974 27.2477 26.4005 27.9344C27.1035 28.6211 27.4989 29.5521 27.5 30.5232V32.2038C25.224 33.502 22.6357 34.186 20 34.186C17.3644 34.186 14.776 33.502 12.5 32.2038ZM29.9906 30.4326C29.9658 28.8311 29.2977 27.3032 28.1304 26.1782C26.963 25.0532 25.3899 24.4213 23.75 24.4186H16.25C14.6101 24.4213 13.037 25.0532 11.8697 26.1782C10.7023 27.3032 10.0342 28.8311 10.0094 30.4326C7.74259 28.4556 6.14405 25.8528 5.42543 22.9687C4.70681 20.0846 4.90201 17.0553 5.98518 14.282C7.06835 11.5087 8.98841 9.12211 11.4911 7.43833C13.9938 5.75454 16.9611 4.85296 20 4.85296C23.039 4.85296 26.0062 5.75454 28.5089 7.43833C31.0116 9.12211 32.9317 11.5087 34.0148 14.282C35.098 17.0553 35.2932 20.0846 34.5746 22.9687C33.856 25.8528 32.2574 28.4556 29.9906 30.4326Z" fill="#373B5F"/>
</svg>
